# xmcd
#
# Track frame offsets:
# 150
# 16739
# 32340
# 48428
# 63733
# 80978
# 97478
# 117356
# 136946
# 149351
# 164745
#
# Disc length: 2363 seconds
#
# Revision: 1
# Processed by: cddbd v1.5.2PL0 Copyright (c) Steve Scherf et al.
# Submitted via: CedeCatalogueitor 2.6.0.6 http://personales.ya.com/cdcatalogueitor
#
DISCID=a109390b
DTITLE=Mano De Santo - Hurra Y Aleluya
DYEAR=1900
DGENRE=
TTITLE0=Nos Insultan
TTITLE1=La Mejor Excusa
TTITLE2=Cierta Curiosidad
TTITLE3=Pesetas
TTITLE4=La Fibra Fusible
TTITLE5=Cuando Vivía Aqui
TTITLE6=Futuras Amigas
TTITLE7=Living Apart Together
TTITLE8=Tik Taktik Tza
TTITLE9=Las Reglas Del Rugby
TTITLE10=No Merece La Pena
EXTD=
EXTT0=
EXTT1=
EXTT2=
EXTT3=
EXTT4=
EXTT5=
EXTT6=
EXTT7=
EXTT8=
EXTT9=
EXTT10=
PLAYORDER=
